<svg width="60" height="12" viewBox="0 0 60 12" fill="none" xmlns="http://www.w3.org/2000/svg">
<path d="M58.0613 9.77465H52.8361C52.14 9.77465 52.1038 9.53057 52.1038 9.178V7.82196C52.1038 7.57788 52.1852 7.32475 52.7909 7.32475H57.1211V6.9541H52.7637C52.158 6.9541 52.0767 6.75522 52.0767 6.43881C52.0767 6.17664 52.1761 5.90543 52.7637 5.90543H57.8986C58.4681 5.90543 58.5856 6.17664 58.5856 6.42977V7.84004C58.5856 8.12933 58.4772 8.32822 57.8986 8.32822H53.5683V8.69887H58.0613C58.6489 8.69887 58.7936 8.93391 58.7936 9.23224C58.7936 9.58481 58.6489 9.77465 58.0613 9.77465ZM54.7978 5.39014H52.4744C51.8145 5.39014 51.7422 5.11893 51.7422 4.75733V2.80464C51.7422 2.19894 52.0857 2.01814 52.4744 2.01814C52.8541 2.01814 53.2067 2.18086 53.2067 2.80464V4.16067H54.7978C55.4939 4.16067 55.6204 4.46804 55.6204 4.75733C55.6204 5.12798 55.4577 5.39014 54.7978 5.39014ZM57.6455 5.59807C57.2386 5.59807 56.9132 5.40822 56.9132 4.80253V2.71423C56.9132 2.10854 57.2567 1.92773 57.6455 1.92773C58.0251 1.92773 58.3777 2.09046 58.3777 2.71423V3.10296H59.0377C59.7247 3.10296 59.8603 3.44649 59.8603 3.73578C59.8603 4.09739 59.7247 4.38668 59.0377 4.38668H58.3777V4.80253C58.3777 5.4263 58.0342 5.59807 57.6455 5.59807Z" fill="#2D2D2D"/>
<path d="M46.8623 4.66692H41.619C40.959 4.66692 40.8867 4.39572 40.8867 4.03411V2.71423C40.8867 2.10854 41.2302 1.92773 41.619 1.92773C41.9987 1.92773 42.3512 2.09046 42.3512 2.71423V3.50977H46.8623C47.4499 3.50977 47.5494 3.8081 47.5494 4.07931C47.5494 4.40476 47.4499 4.66692 46.8623 4.66692ZM46.8623 9.77465H41.619C40.959 9.77465 40.8867 9.50345 40.8867 9.14184V7.97565C40.8867 7.36995 41.2302 7.18915 41.619 7.18915C41.9987 7.18915 42.3512 7.35187 42.3512 7.97565V8.6175H46.8623C47.4499 8.6175 47.5494 8.91583 47.5494 9.18704C47.5494 9.51249 47.4499 9.77465 46.8623 9.77465ZM47.5132 6.63769H40.941C40.3353 6.63769 40.2539 6.39361 40.2539 6.05912C40.2539 5.79695 40.3353 5.49862 40.941 5.49862H47.5132C48.1189 5.49862 48.2003 5.79695 48.2003 6.05912C48.2003 6.39361 48.1189 6.63769 47.5132 6.63769Z" fill="#2D2D2D"/>
<path d="M33.1729 9.34976C32.9469 9.10568 32.9198 8.69887 33.1638 8.40054C33.8328 7.58692 33.8961 6.96314 33.8961 5.95064V3.28377H32.3773C31.7174 3.28377 31.5547 3.0216 31.5547 2.65095C31.5547 2.3255 31.6903 2.03622 32.3412 2.03622H34.7007C35.3516 2.03622 35.3968 2.29838 35.3968 2.72327V6.24896C35.3968 6.93602 35.1346 8.59038 34.3481 9.30456C34.0227 9.61193 33.5435 9.74753 33.1729 9.34976ZM37.702 9.68425C37.2952 9.68425 36.9698 9.49441 36.9698 8.88871V2.71423C36.9698 2.10854 37.3133 1.92773 37.702 1.92773C38.0817 1.92773 38.4343 2.09046 38.4343 2.71423V4.88389H39.1485C39.8355 4.88389 39.9711 5.22742 39.9711 5.51671C39.9711 5.87831 39.8355 6.1676 39.1485 6.1676H38.4343V8.88871C38.4343 9.51249 38.0908 9.68425 37.702 9.68425Z" fill="#2D2D2D"/>
<path d="M29.6702 9.79273H24.2823C23.6223 9.79273 23.55 9.52153 23.55 9.15992V7.12587C23.55 6.52017 23.8483 6.33937 24.2371 6.33937C24.5896 6.33937 24.9241 6.49305 24.9603 7.02642H28.9832C29.0193 6.51113 29.3538 6.33937 29.7154 6.33937C30.1042 6.33937 30.4025 6.52921 30.4025 7.12587V9.15992C30.4025 9.52153 30.3302 9.79273 29.6702 9.79273ZM24.9693 8.63558H28.9832V8.18357H24.9693V8.63558ZM23.7579 6.032C23.55 6.04104 23.315 5.97776 23.1703 5.73367C22.9262 5.34494 23.0709 5.01949 23.4686 4.75733C23.9749 4.42284 24.3275 4.19683 24.5354 3.74482C24.5896 3.6273 24.6258 3.49169 24.6439 3.31993H24.0111C23.3511 3.31993 23.1884 3.0216 23.1884 2.70519C23.1884 2.33454 23.3511 2.07238 24.0111 2.07238H26.7412C27.4011 2.07238 27.5639 2.33454 27.5639 2.70519C27.5639 3.0216 27.4011 3.31993 26.7412 3.31993H26.1897C26.2169 3.49169 26.253 3.6273 26.3163 3.74482C26.5604 4.20587 26.8587 4.40476 27.3198 4.70308C27.7085 4.96525 27.8622 5.2907 27.6181 5.67943C27.4825 5.88735 27.2927 5.9868 27.0757 5.99584C26.9401 5.99584 26.7954 5.97776 26.6598 5.87831C26.235 5.56191 25.8281 5.20934 25.4756 4.78445C25.1592 5.21838 24.7433 5.60711 24.3003 5.86023C24.1467 5.95968 23.9478 6.02296 23.7579 6.032ZM29.6612 6.09528C29.2544 6.09528 28.9289 5.90544 28.9289 5.29974V2.71423C28.9289 2.10854 29.2725 1.92773 29.6612 1.92773C30.0409 1.92773 30.3935 2.09046 30.3935 2.71423V5.29974C30.3935 5.92352 30.0499 6.09528 29.6612 6.09528Z" fill="#2D2D2D"/>
<path d="M15.0098 9.52153C14.8019 9.53057 14.5669 9.46728 14.4222 9.2232C14.1781 8.83447 14.3318 8.4819 14.7206 8.20165C15.6969 7.5146 16.0585 6.64673 16.0585 5.62519V2.71423C16.0585 2.09046 16.4292 1.92773 16.8089 1.92773C17.1885 1.92773 17.5592 2.09046 17.5592 2.71423V5.62519C17.5592 6.64673 17.9208 7.45131 18.8971 8.13837C19.2859 8.41862 19.4396 8.77119 19.1955 9.15992C19.0599 9.36784 18.87 9.46728 18.6531 9.47633C18.5175 9.47633 18.3728 9.45824 18.2372 9.3588C17.6586 8.95199 17.2066 8.42766 16.8541 7.84908C16.5286 8.46382 16.0947 8.99719 15.5523 9.34976C15.3895 9.4492 15.2087 9.51249 15.0098 9.52153ZM21.0578 9.68425C20.6509 9.68425 20.3255 9.49441 20.3255 8.88871V2.71423C20.3255 2.10854 20.669 1.92773 21.0578 1.92773C21.4374 1.92773 21.79 2.09046 21.79 2.71423V8.88871C21.79 9.51249 21.4465 9.68425 21.0578 9.68425Z" fill="#2D2D2D"/>
<g clip-path="url(#clip0_2608_5808)">
<path d="M0.398438 3.32728V8.80843C0.399247 9.42298 0.668147 10.0121 1.14615 10.4467C1.62416 10.8812 2.27224 11.1257 2.94825 11.1264H8.04786C8.72386 11.1257 9.37195 10.8812 9.84995 10.4467C10.328 10.0121 10.5969 9.42298 10.5977 8.80843V3.32728C10.5976 3.07929 10.5247 2.83582 10.3863 2.6221C10.248 2.40837 10.0493 2.23216 9.8108 2.11172L5.74589 0.0584328C5.67009 0.0201115 5.58479 0 5.49805 0C5.41132 0 5.32602 0.0201115 5.25021 0.0584328L1.18531 2.11172C0.946853 2.23216 0.748156 2.40837 0.609804 2.6221C0.471452 2.83582 0.398477 3.07929 0.398438 3.32728ZM5.49805 2.54982C5.64934 2.54982 5.79724 2.59061 5.92303 2.66702C6.04883 2.74343 6.14687 2.85204 6.20477 2.9791C6.26266 3.10617 6.27781 3.24599 6.2483 3.38089C6.21878 3.51578 6.14593 3.63969 6.03895 3.73695C5.93197 3.8342 5.79567 3.90043 5.64729 3.92726C5.4989 3.95409 5.3451 3.94032 5.20532 3.88769C5.06555 3.83506 4.94608 3.74593 4.86203 3.63157C4.77797 3.51721 4.73311 3.38276 4.73311 3.24522C4.73311 3.06079 4.8137 2.88391 4.95716 2.7535C5.10061 2.62309 5.29518 2.54982 5.49805 2.54982Z" fill="#FF543C"/>
<path d="M3.7099 2.31801H7.41871V5.09962H3.7099V2.31801Z" fill="#FF543C"/>
<mask id="mask0_2608_5808" style="mask-type:alpha" maskUnits="userSpaceOnUse" x="0" y="0" width="11" height="12">
<path d="M0.394531 3.32728V8.80843C0.395341 9.42298 0.664241 10.0121 1.14225 10.4467C1.62025 10.8812 2.26834 11.1257 2.94434 11.1264H8.04396C8.71996 11.1257 9.36804 10.8812 9.84605 10.4467C10.3241 10.0121 10.593 9.42298 10.5938 8.80843V3.32728C10.5937 3.07929 10.5207 2.83582 10.3824 2.6221C10.244 2.40837 10.0453 2.23216 9.80689 2.11172L5.74199 0.0584328C5.66619 0.0201115 5.58088 0 5.49415 0C5.40741 0 5.32211 0.0201115 5.24631 0.0584328L1.1814 2.11172C0.942946 2.23216 0.74425 2.40837 0.605898 2.6221C0.467546 2.83582 0.394571 3.07929 0.394531 3.32728ZM5.49415 2.54982C5.64544 2.54982 5.79333 2.59061 5.91913 2.66702C6.04492 2.74343 6.14297 2.85204 6.20086 2.9791C6.25876 3.10617 6.27391 3.24599 6.24439 3.38089C6.21488 3.51578 6.14202 3.63969 6.03504 3.73695C5.92806 3.8342 5.79176 3.90043 5.64338 3.92726C5.495 3.95409 5.34119 3.94032 5.20142 3.88769C5.06164 3.83506 4.94217 3.74593 4.85812 3.63157C4.77407 3.51721 4.72921 3.38276 4.72921 3.24522C4.72921 3.06079 4.8098 2.88391 4.95325 2.7535C5.09671 2.62309 5.29127 2.54982 5.49415 2.54982Z" fill="#FF543C"/>
<path d="M3.70599 2.31801H7.4148V5.09962H3.70599V2.31801Z" fill="#FF543C"/>
</mask>
<g mask="url(#mask0_2608_5808)">
<path d="M10.5898 3.02976L10.5898 -2.45139C10.589 -3.06594 10.3201 -3.6551 9.84213 -4.08965C9.36412 -4.5242 8.71604 -4.76866 8.04003 -4.76939L2.94042 -4.76939C2.26442 -4.76866 1.61633 -4.5242 1.13833 -4.08965C0.660319 -3.6551 0.39142 -3.06593 0.390611 -2.45139L0.390611 3.02976C0.39065 3.27775 0.463627 3.52122 0.601978 3.73495C0.74033 3.94867 0.939026 4.12488 1.17748 4.24532L5.24239 6.69596C5.31819 6.73428 5.40349 6.75439 5.49023 6.75439C5.57696 6.75439 5.66227 6.73428 5.73807 6.69596L9.80297 4.24532C10.0414 4.12488 10.2401 3.94867 10.3785 3.73495C10.5168 3.52122 10.5898 3.27775 10.5898 3.02976ZM5.49023 3.80722C5.33894 3.80722 5.19104 3.76644 5.06525 3.69003C4.93945 3.61361 4.84141 3.50501 4.78351 3.37794C4.72562 3.25087 4.71047 3.11105 4.73998 2.97615C4.7695 2.84126 4.84235 2.71735 4.94933 2.6201C5.05631 2.52284 5.19261 2.45661 5.34099 2.42978C5.48938 2.40295 5.64318 2.41672 5.78296 2.46935C5.92273 2.52199 6.0422 2.61112 6.12625 2.72548C6.21031 2.83983 6.25517 2.97428 6.25517 3.11182C6.25517 3.29625 6.17458 3.47313 6.03112 3.60354C5.88767 3.73396 5.6931 3.80722 5.49023 3.80722Z" fill="#DC432E"/>
<path d="M7.27838 4.03904L3.56957 4.03904L3.56957 1.25743L7.27838 1.25743L7.27838 4.03904Z" fill="#DC432E"/>
</g>
<path d="M6.38841 5.16406C6.0288 5.16406 5.70695 5.32122 5.50629 5.56231C5.30562 5.32122 4.98377 5.16406 4.62417 5.16406C4.01423 5.16406 3.51953 5.61052 3.51953 6.16235C3.51953 6.37487 3.55728 6.57131 3.62284 6.75347C3.93675 7.64639 4.9043 8.18036 5.38311 8.3268C5.45066 8.34823 5.56192 8.34823 5.62947 8.3268C6.10827 8.18036 7.07582 7.64639 7.38973 6.75347C7.45529 6.57131 7.49304 6.37487 7.49304 6.16235C7.49304 5.61052 6.99834 5.16406 6.38841 5.16406Z" fill="white"/>
</g>
<defs>
<clipPath id="clip0_2608_5808">
<rect width="11.1264" height="11.1264" fill="white"/>
</clipPath>
</defs>
</svg>
